<svg width="120" height="160" viewBox="0 0 120 160" fill="none" xmlns="http://www.w3.org/2000/svg">
  <!-- Background -->
  <rect width="120" height="160" fill="white"/>
  <rect x="1" y="1" width="118" height="158" stroke="#e5e7eb" stroke-width="1" fill="none"/>
  
  <!-- Elegant header with border -->
  <rect x="10" y="12" width="100" height="24" fill="white" stroke="#4361ee" stroke-width="1"/>
  <rect x="25" y="17" width="70" height="7" rx="1" fill="#1f2937"/>
  <rect x="35" y="27" width="50" height="3" rx="1" fill="#4361ee"/>
  
  <!-- Contact line -->
  <rect x="20" y="42" width="80" height="2" rx="0.5" fill="#6b7280"/>
  
  <!-- Section with underline -->
  <rect x="10" y="52" width="50" height="4" rx="1" fill="#1f2937"/>
  <rect x="10" y="57" width="100" height="0.5" fill="#e5e7eb"/>
  <rect x="10" y="62" width="100" height="2" rx="0.5" fill="#d1d5db"/>
  <rect x="10" y="66" width="95" height="2" rx="0.5" fill="#d1d5db"/>
  <rect x="10" y="70" width="88" height="2" rx="0.5" fill="#d1d5db"/>
  
  <!-- Experience with elegant styling -->
  <rect x="10" y="80" width="60" height="4" rx="1" fill="#1f2937"/>
  <rect x="10" y="85" width="100" height="0.5" fill="#e5e7eb"/>
  <rect x="10" y="90" width="55" height="3" rx="0.5" fill="#374151"/>
  <rect x="80" y="90" width="30" height="2" rx="0.5" fill="#9ca3af"/>
  <rect x="10" y="95" width="40" height="2" rx="0.5" fill="#4361ee"/>
  <rect x="15" y="100" width="85" height="2" rx="0.5" fill="#d1d5db"/>
  <rect x="15" y="104" width="80" height="2" rx="0.5" fill="#d1d5db"/>
  
  <rect x="10" y="112" width="50" height="3" rx="0.5" fill="#374151"/>
  <rect x="80" y="112" width="28" height="2" rx="0.5" fill="#9ca3af"/>
  <rect x="10" y="117" width="35" height="2" rx="0.5" fill="#4361ee"/>
  <rect x="15" y="122" width="82" height="2" rx="0.5" fill="#d1d5db"/>
  <rect x="15" y="126" width="78" height="2" rx="0.5" fill="#d1d5db"/>
  
  <!-- Education -->
  <rect x="10" y="136" width="45" height="4" rx="1" fill="#1f2937"/>
  <rect x="10" y="141" width="100" height="0.5" fill="#e5e7eb"/>
  <rect x="10" y="146" width="60" height="3" rx="0.5" fill="#374151"/>
  
  <!-- PRO Badge -->
  <rect x="85" y="5" width="30" height="12" rx="6" fill="#8b5cf6"/>
  <text x="100" y="13" font-family="Arial" font-size="6" font-weight="bold" fill="white" text-anchor="middle">PRO</text>
</svg>
