<svg xmlns="http://www.w3.org/2000/svg" viewBox="0 0 200 200" fill="none">
  <!-- Option 5: Shield/Badge - A in a shield shape, professional/trustworthy -->
  
  <!-- Shield outline -->
  <path 
    d="M 100 10 L 175 35 L 175 100 Q 175 160 100 190 Q 25 160 25 100 L 25 35 Z" 
    stroke="#5e6bf1" 
    stroke-width="4" 
    fill="none"
  />
  
  <!-- Inner shield glow -->
  <path 
    d="M 100 22 L 163 43 L 163 100 Q 163 152 100 178 Q 37 152 37 100 L 37 43 Z" 
    stroke="#5e6bf1" 
    stroke-width="1.5" 
    fill="none"
    opacity="0.25"
  />
  
  <!-- Prominent A letterform -->
  <g fill="#5e6bf1">
    <path d="M 100 40 L 55 155 L 75 155 L 85 130 L 115 130 L 125 155 L 145 155 L 100 40 Z M 90 115 L 100 85 L 110 115 Z"/>
  </g>
  
  <!-- Crown/star element at top of A -->
  <g fill="#f59e0b">
    <!-- Central star point -->
    <polygon points="100,25 105,38 100,42 95,38"/>
    <!-- Left point -->
    <polygon points="88,38 95,40 95,35"/>
    <!-- Right point -->
    <polygon points="112,38 105,35 105,40"/>
  </g>
  
  <!-- Base accent line -->
  <path d="M 60 160 Q 100 170 140 160" stroke="#f59e0b" stroke-width="3" fill="none" stroke-linecap="round"/>
  
  <!-- Corner star accents -->
  <g fill="#f59e0b" opacity="0.6">
    <circle cx="100" cy="10" r="3"/>
    <circle cx="175" cy="35" r="3"/>
    <circle cx="25" cy="35" r="3"/>
  </g>
</svg>
