<svg width="120" height="160" viewBox="0 0 120 160" fill="none" xmlns="http://www.w3.org/2000/svg">
  <!-- Background -->
  <rect width="120" height="160" fill="white"/>
  <rect x="1" y="1" width="118" height="158" stroke="#e5e7eb" stroke-width="1" fill="none"/>
  
  <!-- Header - centered, simple -->
  <rect x="25" y="12" width="70" height="8" rx="1" fill="#1f2937"/>
  <rect x="35" y="24" width="50" height="3" rx="1" fill="#9ca3af"/>
  <line x1="10" y1="32" x2="110" y2="32" stroke="#1f2937" stroke-width="0.5"/>
  
  <!-- Summary Section -->
  <rect x="10" y="38" width="40" height="4" rx="1" fill="#1f2937"/>
  <rect x="10" y="46" width="100" height="2" rx="0.5" fill="#d1d5db"/>
  <rect x="10" y="50" width="95" height="2" rx="0.5" fill="#d1d5db"/>
  <rect x="10" y="54" width="85" height="2" rx="0.5" fill="#d1d5db"/>
  
  <!-- Experience Section -->
  <rect x="10" y="64" width="45" height="4" rx="1" fill="#1f2937"/>
  <rect x="10" y="72" width="60" height="3" rx="0.5" fill="#4b5563"/>
  <rect x="15" y="78" width="90" height="2" rx="0.5" fill="#d1d5db"/>
  <rect x="15" y="82" width="85" height="2" rx="0.5" fill="#d1d5db"/>
  <rect x="15" y="86" width="80" height="2" rx="0.5" fill="#d1d5db"/>
  
  <rect x="10" y="94" width="55" height="3" rx="0.5" fill="#4b5563"/>
  <rect x="15" y="100" width="88" height="2" rx="0.5" fill="#d1d5db"/>
  <rect x="15" y="104" width="82" height="2" rx="0.5" fill="#d1d5db"/>
  
  <!-- Education Section -->
  <rect x="10" y="114" width="40" height="4" rx="1" fill="#1f2937"/>
  <rect x="10" y="122" width="70" height="3" rx="0.5" fill="#4b5563"/>
  <rect x="10" y="128" width="50" height="2" rx="0.5" fill="#9ca3af"/>
  
  <!-- FREE Badge -->
  <rect x="85" y="5" width="30" height="12" rx="6" fill="#22c55e"/>
  <text x="100" y="13" font-family="Arial" font-size="6" font-weight="bold" fill="white" text-anchor="middle">FREE</text>
</svg>
