<svg xmlns="http://www.w3.org/2000/svg" viewBox="0 0 300 400" fill="none">
  <!-- Background -->
  <rect width="300" height="400" fill="#ffffff" rx="4"/>
  <rect x="1" y="1" width="298" height="398" fill="none" stroke="#e0e0e0" rx="4"/>
  
  <!-- Header - centered, elegant -->
  <rect x="60" y="25" width="180" height="20" rx="2" fill="#222"/>
  <!-- Decorative line under name -->
  <rect x="100" y="50" width="100" height="2" fill="#4361ee"/>
  
  <!-- Contact info centered -->
  <rect x="70" y="60" width="160" height="8" rx="2" fill="#444"/>
  
  <!-- Section: Professional Summary -->
  <rect x="20" y="85" width="260" height="1" fill="#ccc"/>
  <rect x="95" y="78" width="110" height="10" rx="2" fill="#222"/>
  <rect x="20" y="95" width="260" height="6" rx="2" fill="#666"/>
  <rect x="20" y="105" width="250" height="6" rx="2" fill="#666"/>
  <rect x="20" y="115" width="220" height="6" rx="2" fill="#666"/>
  
  <!-- Section: Experience -->
  <rect x="20" y="140" width="260" height="1" fill="#ccc"/>
  <rect x="105" y="133" width="90" height="10" rx="2" fill="#222"/>
  
  <!-- Experience item 1 -->
  <rect x="20" y="155" width="150" height="10" rx="2" fill="#333"/>
  <rect x="200" y="155" width="80" height="8" rx="2" fill="#888"/>
  <rect x="20" y="168" width="100" height="8" rx="2" fill="#666"/>
  <rect x="30" y="180" width="240" height="6" rx="2" fill="#888"/>
  <rect x="30" y="190" width="230" height="6" rx="2" fill="#888"/>
  
  <!-- Experience item 2 -->
  <rect x="20" y="210" width="140" height="10" rx="2" fill="#333"/>
  <rect x="200" y="210" width="80" height="8" rx="2" fill="#888"/>
  <rect x="20" y="223" width="90" height="8" rx="2" fill="#666"/>
  <rect x="30" y="235" width="250" height="6" rx="2" fill="#888"/>
  <rect x="30" y="245" width="220" height="6" rx="2" fill="#888"/>
  
  <!-- Section: Education -->
  <rect x="20" y="270" width="260" height="1" fill="#ccc"/>
  <rect x="115" y="263" width="70" height="10" rx="2" fill="#222"/>
  
  <!-- Education item -->
  <rect x="20" y="285" width="180" height="10" rx="2" fill="#333"/>
  <rect x="20" y="298" width="120" height="8" rx="2" fill="#666"/>
  <rect x="200" y="285" width="80" height="8" rx="2" fill="#888"/>
  
  <!-- Section: Skills -->
  <rect x="20" y="325" width="260" height="1" fill="#ccc"/>
  <rect x="125" y="318" width="50" height="10" rx="2" fill="#222"/>
  
  <!-- Skills list -->
  <rect x="20" y="340" width="260" height="6" rx="2" fill="#888"/>
  <rect x="20" y="350" width="240" height="6" rx="2" fill="#888"/>
  
  <!-- Page number -->
  <text x="150" y="385" fill="#888" font-family="Georgia, serif" font-size="10" text-anchor="middle">1</text>
  
  <!-- PRO badge -->
  <rect x="225" y="10" width="65" height="22" rx="11" fill="#8b5cf6"/>
  <text x="257" y="25" fill="white" font-family="Arial, sans-serif" font-size="10" font-weight="bold" text-anchor="middle">PRO</text>
</svg>
