<svg width="120" height="160" viewBox="0 0 120 160" fill="none" xmlns="http://www.w3.org/2000/svg">
  <!-- Background -->
  <rect width="120" height="160" fill="white"/>
  <rect x="1" y="1" width="118" height="158" stroke="#e5e7eb" stroke-width="1" fill="none"/>
  
  <!-- Gradient Sidebar -->
  <defs>
    <linearGradient id="sidebarGrad" x1="0%" y1="0%" x2="0%" y2="100%">
      <stop offset="0%" style="stop-color:#8b5cf6"/>
      <stop offset="100%" style="stop-color:#a78bfa"/>
    </linearGradient>
  </defs>
  <rect x="0" y="0" width="40" height="160" fill="url(#sidebarGrad)"/>
  
  <!-- Sidebar content -->
  <rect x="6" y="12" width="28" height="6" rx="1" fill="white"/>
  <rect x="6" y="22" width="24" height="2" rx="0.5" fill="rgba(255,255,255,0.7)"/>
  
  <rect x="6" y="34" width="18" height="3" rx="0.5" fill="rgba(255,255,255,0.5)"/>
  <rect x="6" y="40" width="26" height="2" rx="0.5" fill="rgba(255,255,255,0.8)"/>
  <rect x="6" y="44" width="22" height="2" rx="0.5" fill="rgba(255,255,255,0.8)"/>
  
  <rect x="6" y="54" width="12" height="3" rx="0.5" fill="rgba(255,255,255,0.5)"/>
  <rect x="6" y="60" width="14" height="4" rx="2" fill="rgba(255,255,255,0.2)"/>
  <rect x="22" y="60" width="12" height="4" rx="2" fill="rgba(255,255,255,0.2)"/>
  <rect x="6" y="66" width="16" height="4" rx="2" fill="rgba(255,255,255,0.2)"/>
  
  <!-- Main content -->
  <rect x="48" y="12" width="25" height="4" rx="1" fill="#8b5cf6"/>
  <rect x="48" y="12" width="25" height="4" rx="1" fill="#8b5cf6"/>
  <rect x="48" y="18" width="60" height="2" rx="0.5" fill="#d1d5db"/>
  <rect x="48" y="22" width="55" height="2" rx="0.5" fill="#d1d5db"/>
  <rect x="48" y="26" width="50" height="2" rx="0.5" fill="#d1d5db"/>
  
  <!-- Experience with dots -->
  <rect x="48" y="36" width="35" height="4" rx="1" fill="#8b5cf6"/>
  <circle cx="51" cy="46" r="2" fill="#8b5cf6"/>
  <rect x="56" y="44" width="45" height="3" rx="0.5" fill="#374151"/>
  <rect x="56" y="49" width="35" height="2" rx="0.5" fill="#a78bfa"/>
  <rect x="56" y="53" width="50" height="2" rx="0.5" fill="#d1d5db"/>
  <rect x="56" y="57" width="48" height="2" rx="0.5" fill="#d1d5db"/>
  
  <circle cx="51" cy="67" r="2" fill="#8b5cf6"/>
  <rect x="56" y="65" width="40" height="3" rx="0.5" fill="#374151"/>
  <rect x="56" y="70" width="30" height="2" rx="0.5" fill="#a78bfa"/>
  <rect x="56" y="74" width="48" height="2" rx="0.5" fill="#d1d5db"/>
  
  <!-- Projects with cards -->
  <rect x="48" y="84" width="30" height="4" rx="1" fill="#8b5cf6"/>
  <rect x="48" y="92" width="60" height="18" rx="3" fill="#f8fafc"/>
  <rect x="48" y="92" width="2" height="18" rx="1" fill="#8b5cf6"/>
  <rect x="54" y="96" width="35" height="3" rx="0.5" fill="#374151"/>
  <rect x="54" y="101" width="48" height="2" rx="0.5" fill="#9ca3af"/>
  <rect x="54" y="105" width="30" height="2" rx="0.5" fill="#a78bfa"/>
  
  <!-- Education -->
  <rect x="48" y="116" width="32" height="4" rx="1" fill="#8b5cf6"/>
  <rect x="48" y="124" width="40" height="3" rx="0.5" fill="#374151"/>
  <rect x="48" y="129" width="30" height="2" rx="0.5" fill="#a78bfa"/>
  
  <!-- PRO Badge -->
  <rect x="85" y="5" width="30" height="12" rx="6" fill="#8b5cf6"/>
  <text x="100" y="13" font-family="Arial" font-size="6" font-weight="bold" fill="white" text-anchor="middle">PRO</text>
</svg>
