<svg width="120" height="160" viewBox="0 0 120 160" fill="none" xmlns="http://www.w3.org/2000/svg">
  <!-- Background -->
  <rect width="120" height="160" fill="white"/>
  <rect x="1" y="1" width="118" height="158" stroke="#e5e7eb" stroke-width="1" fill="none"/>
  
  <!-- Bold header banner -->
  <rect x="0" y="0" width="120" height="35" fill="#1e3a5f"/>
  <rect x="15" y="10" width="65" height="8" rx="1" fill="white"/>
  <rect x="15" y="21" width="45" height="3" rx="1" fill="#2d5a87"/>
  <rect x="70" y="10" width="40" height="2" rx="0.5" fill="#94a3b8"/>
  <rect x="70" y="14" width="35" height="2" rx="0.5" fill="#94a3b8"/>
  <rect x="70" y="18" width="38" height="2" rx="0.5" fill="#94a3b8"/>
  
  <!-- Two column layout -->
  <rect x="10" y="42" width="35" height="4" rx="1" fill="#1e3a5f"/>
  <rect x="10" y="50" width="40" height="2" rx="0.5" fill="#d1d5db"/>
  <rect x="10" y="54" width="38" height="2" rx="0.5" fill="#d1d5db"/>
  <rect x="10" y="58" width="35" height="2" rx="0.5" fill="#d1d5db"/>
  
  <rect x="58" y="42" width="50" height="4" rx="1" fill="#1e3a5f"/>
  <rect x="58" y="50" width="48" height="3" rx="0.5" fill="#374151"/>
  <rect x="63" y="55" width="42" height="2" rx="0.5" fill="#d1d5db"/>
  <rect x="63" y="59" width="40" height="2" rx="0.5" fill="#d1d5db"/>
  <rect x="58" y="65" width="45" height="3" rx="0.5" fill="#374151"/>
  <rect x="63" y="70" width="38" height="2" rx="0.5" fill="#d1d5db"/>
  
  <!-- Skills -->
  <rect x="10" y="68" width="25" height="4" rx="1" fill="#1e3a5f"/>
  <rect x="10" y="76" width="18" height="5" rx="2" fill="#f1f5f9"/>
  <rect x="30" y="76" width="15" height="5" rx="2" fill="#f1f5f9"/>
  <rect x="10" y="83" width="20" height="5" rx="2" fill="#f1f5f9"/>
  <rect x="32" y="83" width="14" height="5" rx="2" fill="#f1f5f9"/>
  
  <!-- More experience -->
  <rect x="58" y="80" width="45" height="3" rx="0.5" fill="#374151"/>
  <rect x="63" y="85" width="40" height="2" rx="0.5" fill="#d1d5db"/>
  <rect x="63" y="89" width="38" height="2" rx="0.5" fill="#d1d5db"/>
  
  <!-- Education -->
  <rect x="10" y="96" width="35" height="4" rx="1" fill="#1e3a5f"/>
  <rect x="10" y="104" width="40" height="3" rx="0.5" fill="#374151"/>
  <rect x="10" y="109" width="35" height="2" rx="0.5" fill="#9ca3af"/>
  
  <!-- Projects -->
  <rect x="58" y="100" width="30" height="4" rx="1" fill="#1e3a5f"/>
  <rect x="58" y="108" width="2" height="12" fill="#2d5a87"/>
  <rect x="63" y="108" width="35" height="3" rx="0.5" fill="#374151"/>
  <rect x="63" y="113" width="40" height="2" rx="0.5" fill="#d1d5db"/>
  
  <!-- PRO Badge -->
  <rect x="85" y="40" width="30" height="12" rx="6" fill="#8b5cf6"/>
  <text x="100" y="48" font-family="Arial" font-size="6" font-weight="bold" fill="white" text-anchor="middle">PRO</text>
</svg>
