<svg xmlns="http://www.w3.org/2000/svg" viewBox="0 0 300 400" fill="none">
  <!-- Background -->
  <rect width="300" height="400" fill="#ffffff" rx="4"/>
  <rect x="1" y="1" width="298" height="398" fill="none" stroke="#e0e0e0" rx="4"/>
  
  <!-- Header Banner with gradient -->
  <defs>
    <linearGradient id="headerGrad" x1="0%" y1="0%" x2="100%" y2="100%">
      <stop offset="0%" style="stop-color:#1e3a5f"/>
      <stop offset="100%" style="stop-color:#2d5a87"/>
    </linearGradient>
  </defs>
  <rect x="0" y="0" width="300" height="80" fill="url(#headerGrad)" rx="4 4 0 0"/>
  
  <!-- Name in header -->
  <rect x="20" y="20" width="160" height="18" rx="2" fill="#ffffff"/>
  <!-- Headline -->
  <rect x="20" y="44" width="100" height="10" rx="2" fill="#ffffff" opacity="0.8"/>
  
  <!-- Contact row -->
  <rect x="20" y="62" width="60" height="8" rx="2" fill="#ffffff" opacity="0.6"/>
  <rect x="90" y="62" width="70" height="8" rx="2" fill="#ffffff" opacity="0.6"/>
  <rect x="170" y="62" width="80" height="8" rx="2" fill="#ffffff" opacity="0.6"/>
  
  <!-- Two column layout -->
  <!-- Left sidebar -->
  <rect x="0" y="80" width="90" height="320" fill="#f8f9fa"/>
  
  <!-- Sidebar: Skills -->
  <rect x="10" y="95" width="70" height="10" rx="2" fill="#1e3a5f"/>
  <rect x="10" y="112" width="70" height="1" fill="#1e3a5f"/>
  
  <!-- Skill items -->
  <rect x="10" y="120" width="60" height="6" rx="2" fill="#666"/>
  <rect x="10" y="130" width="55" height="6" rx="2" fill="#666"/>
  <rect x="10" y="140" width="65" height="6" rx="2" fill="#666"/>
  <rect x="10" y="150" width="50" height="6" rx="2" fill="#666"/>
  <rect x="10" y="160" width="58" height="6" rx="2" fill="#666"/>
  
  <!-- Sidebar: Education -->
  <rect x="10" y="185" width="70" height="10" rx="2" fill="#1e3a5f"/>
  <rect x="10" y="202" width="70" height="1" fill="#1e3a5f"/>
  
  <rect x="10" y="210" width="70" height="8" rx="2" fill="#333"/>
  <rect x="10" y="222" width="60" height="6" rx="2" fill="#666"/>
  <rect x="10" y="232" width="50" height="6" rx="2" fill="#888"/>
  
  <!-- Main content area -->
  <!-- Section: Summary -->
  <rect x="100" y="95" width="60" height="10" rx="2" fill="#1e3a5f"/>
  <rect x="100" y="112" width="185" height="1" fill="#1e3a5f"/>
  
  <rect x="100" y="120" width="185" height="6" rx="2" fill="#666"/>
  <rect x="100" y="130" width="175" height="6" rx="2" fill="#666"/>
  <rect x="100" y="140" width="160" height="6" rx="2" fill="#666"/>
  
  <!-- Section: Experience -->
  <rect x="100" y="165" width="80" height="10" rx="2" fill="#1e3a5f"/>
  <rect x="100" y="182" width="185" height="1" fill="#1e3a5f"/>
  
  <!-- Experience item 1 -->
  <rect x="100" y="190" width="3" height="45" fill="#1e3a5f"/>
  <rect x="110" y="190" width="120" height="10" rx="2" fill="#1e3a5f"/>
  <rect x="110" y="204" width="80" height="8" rx="2" fill="#2d5a87"/>
  <rect x="110" y="216" width="170" height="6" rx="2" fill="#666"/>
  <rect x="110" y="226" width="160" height="6" rx="2" fill="#666"/>
  
  <!-- Experience item 2 -->
  <rect x="100" y="250" width="3" height="45" fill="#1e3a5f"/>
  <rect x="110" y="250" width="110" height="10" rx="2" fill="#1e3a5f"/>
  <rect x="110" y="264" width="70" height="8" rx="2" fill="#2d5a87"/>
  <rect x="110" y="276" width="165" height="6" rx="2" fill="#666"/>
  <rect x="110" y="286" width="150" height="6" rx="2" fill="#666"/>
  
  <!-- Section: Projects -->
  <rect x="100" y="310" width="60" height="10" rx="2" fill="#1e3a5f"/>
  <rect x="100" y="327" width="185" height="1" fill="#1e3a5f"/>
  
  <rect x="100" y="335" width="130" height="8" rx="2" fill="#333"/>
  <rect x="100" y="347" width="175" height="6" rx="2" fill="#666"/>
  <rect x="100" y="357" width="160" height="6" rx="2" fill="#666"/>
  
  <!-- PRO badge -->
  <rect x="225" y="10" width="65" height="22" rx="11" fill="#8b5cf6"/>
  <text x="257" y="25" fill="white" font-family="Arial, sans-serif" font-size="10" font-weight="bold" text-anchor="middle">PRO</text>
</svg>
