<svg width="120" height="160" viewBox="0 0 120 160" fill="none" xmlns="http://www.w3.org/2000/svg">
  <!-- Background -->
  <rect width="120" height="160" fill="white"/>
  <rect x="1" y="1" width="118" height="158" stroke="#e5e7eb" stroke-width="1" fill="none"/>
  
  <!-- Header with accent line -->
  <rect x="10" y="10" width="70" height="10" rx="1" fill="#1a1a2e"/>
  <rect x="10" y="24" width="45" height="3" rx="1" fill="#4361ee"/>
  <rect x="10" y="32" width="100" height="2" fill="#4361ee"/>
  
  <!-- Summary with accent border -->
  <rect x="10" y="40" width="100" height="18" rx="2" fill="#f8faff"/>
  <rect x="10" y="40" width="2" height="18" fill="#4361ee"/>
  <rect x="16" y="44" width="88" height="2" rx="0.5" fill="#9ca3af"/>
  <rect x="16" y="48" width="85" height="2" rx="0.5" fill="#9ca3af"/>
  <rect x="16" y="52" width="75" height="2" rx="0.5" fill="#9ca3af"/>
  
  <!-- Skills section with colored tags -->
  <rect x="10" y="64" width="35" height="4" rx="1" fill="#4361ee"/>
  <rect x="10" y="72" width="20" height="6" rx="3" fill="#eef2ff"/>
  <rect x="33" y="72" width="25" height="6" rx="3" fill="#eef2ff"/>
  <rect x="61" y="72" width="22" height="6" rx="3" fill="#f0fdf4"/>
  <rect x="86" y="72" width="18" height="6" rx="3" fill="#fef3f2"/>
  <rect x="10" y="80" width="28" height="6" rx="3" fill="#eef2ff"/>
  <rect x="41" y="80" width="24" height="6" rx="3" fill="#f0fdf4"/>
  
  <!-- Experience -->
  <rect x="10" y="92" width="55" height="4" rx="1" fill="#4361ee"/>
  <rect x="10" y="100" width="50" height="3" rx="0.5" fill="#1a1a2e"/>
  <rect x="63" y="100" width="3" height="3" rx="0.5" fill="#4361ee"/>
  <rect x="68" y="100" width="35" height="3" rx="0.5" fill="#4361ee"/>
  <rect x="15" y="106" width="85" height="2" rx="0.5" fill="#d1d5db"/>
  <rect x="15" y="110" width="80" height="2" rx="0.5" fill="#d1d5db"/>
  <rect x="15" y="114" width="75" height="2" rx="0.5" fill="#d1d5db"/>
  
  <rect x="10" y="122" width="45" height="3" rx="0.5" fill="#1a1a2e"/>
  <rect x="58" y="122" width="3" height="3" rx="0.5" fill="#4361ee"/>
  <rect x="63" y="122" width="30" height="3" rx="0.5" fill="#4361ee"/>
  <rect x="15" y="128" width="82" height="2" rx="0.5" fill="#d1d5db"/>
  <rect x="15" y="132" width="78" height="2" rx="0.5" fill="#d1d5db"/>
  
  <!-- PRO Badge -->
  <rect x="85" y="5" width="30" height="12" rx="6" fill="#8b5cf6"/>
  <text x="100" y="13" font-family="Arial" font-size="6" font-weight="bold" fill="white" text-anchor="middle">PRO</text>
</svg>
