<svg xmlns="http://www.w3.org/2000/svg" viewBox="0 0 300 400" fill="none">
  <!-- Background -->
  <rect width="300" height="400" fill="#ffffff" rx="4"/>
  <rect x="1" y="1" width="298" height="398" fill="none" stroke="#e0e0e0" rx="4"/>
  
  <!-- Header with accent border -->
  <rect x="20" y="20" width="260" height="60" fill="#f8f9fa"/>
  <rect x="20" y="76" width="260" height="3" fill="#4361ee"/>
  
  <!-- Name -->
  <rect x="25" y="28" width="120" height="16" rx="2" fill="#1a1a2e"/>
  <!-- Headline -->
  <rect x="25" y="50" width="80" height="10" rx="2" fill="#4361ee" opacity="0.8"/>
  
  <!-- Contact info (right side) -->
  <rect x="180" y="30" width="95" height="8" rx="2" fill="#888"/>
  <rect x="180" y="42" width="80" height="8" rx="2" fill="#888"/>
  <rect x="180" y="54" width="90" height="8" rx="2" fill="#4361ee" opacity="0.6"/>
  
  <!-- Section: Skills -->
  <rect x="20" y="95" width="60" height="12" rx="2" fill="#4361ee"/>
  <rect x="20" y="112" width="260" height="1" fill="#e0e0e0"/>
  
  <!-- Skill tags -->
  <rect x="20" y="120" width="45" height="16" rx="8" fill="#4361ee" opacity="0.15"/>
  <rect x="70" y="120" width="55" height="16" rx="8" fill="#4361ee" opacity="0.15"/>
  <rect x="130" y="120" width="40" height="16" rx="8" fill="#4361ee" opacity="0.15"/>
  <rect x="175" y="120" width="50" height="16" rx="8" fill="#4361ee" opacity="0.15"/>
  
  <!-- Section: Experience -->
  <rect x="20" y="150" width="80" height="12" rx="2" fill="#4361ee"/>
  <rect x="20" y="167" width="260" height="1" fill="#e0e0e0"/>
  
  <!-- Experience item 1 -->
  <rect x="20" y="175" width="3" height="50" fill="#4361ee"/>
  <rect x="30" y="175" width="150" height="10" rx="2" fill="#1a1a2e"/>
  <rect x="30" y="190" width="100" height="8" rx="2" fill="#4361ee" opacity="0.7"/>
  <rect x="30" y="203" width="240" height="6" rx="2" fill="#666"/>
  <rect x="30" y="213" width="220" height="6" rx="2" fill="#666"/>
  
  <!-- Experience item 2 -->
  <rect x="20" y="235" width="3" height="50" fill="#4361ee"/>
  <rect x="30" y="235" width="130" height="10" rx="2" fill="#1a1a2e"/>
  <rect x="30" y="250" width="90" height="8" rx="2" fill="#4361ee" opacity="0.7"/>
  <rect x="30" y="263" width="235" height="6" rx="2" fill="#666"/>
  <rect x="30" y="273" width="200" height="6" rx="2" fill="#666"/>
  
  <!-- Section: Education -->
  <rect x="20" y="305" width="70" height="12" rx="2" fill="#4361ee"/>
  <rect x="20" y="322" width="260" height="1" fill="#e0e0e0"/>
  
  <!-- Education item -->
  <rect x="20" y="330" width="180" height="10" rx="2" fill="#1a1a2e"/>
  <rect x="20" y="345" width="120" height="8" rx="2" fill="#666"/>
  
  <!-- Page indicator -->
  <rect x="140" y="375" width="20" height="6" rx="3" fill="#4361ee"/>
  
  <!-- FREE badge -->
  <rect x="225" y="10" width="65" height="22" rx="11" fill="#10b981"/>
  <text x="257" y="25" fill="white" font-family="Arial, sans-serif" font-size="10" font-weight="bold" text-anchor="middle">FREE</text>
</svg>
