<svg width="120" height="160" viewBox="0 0 120 160" fill="none" xmlns="http://www.w3.org/2000/svg">
  <!-- Background -->
  <rect width="120" height="160" fill="white"/>
  <rect x="1" y="1" width="118" height="158" stroke="#e5e7eb" stroke-width="1" fill="none"/>
  
  <!-- Header - left aligned, modern -->
  <rect x="10" y="10" width="65" height="10" rx="1" fill="#1f2937"/>
  <rect x="10" y="24" width="50" height="3" rx="1" fill="#6b7280"/>
  <rect x="10" y="30" width="80" height="2" rx="0.5" fill="#9ca3af"/>
  <rect x="10" y="38" width="100" height="0.5" fill="#e5e7eb"/>
  
  <!-- Summary -->
  <rect x="10" y="44" width="35" height="4" rx="1" fill="#1f2937"/>
  <rect x="10" y="52" width="100" height="2" rx="0.5" fill="#d1d5db"/>
  <rect x="10" y="56" width="95" height="2" rx="0.5" fill="#d1d5db"/>
  
  <!-- Skills as pills -->
  <rect x="10" y="66" width="25" height="4" rx="1" fill="#1f2937"/>
  <rect x="10" y="74" width="22" height="6" rx="2" fill="#f3f4f6"/>
  <rect x="35" y="74" width="28" height="6" rx="2" fill="#f3f4f6"/>
  <rect x="66" y="74" width="20" height="6" rx="2" fill="#f3f4f6"/>
  <rect x="10" y="82" width="25" height="6" rx="2" fill="#f3f4f6"/>
  <rect x="38" y="82" width="18" height="6" rx="2" fill="#f3f4f6"/>
  
  <!-- Experience -->
  <rect x="10" y="96" width="45" height="4" rx="1" fill="#1f2937"/>
  <rect x="10" y="104" width="55" height="3" rx="0.5" fill="#374151"/>
  <rect x="10" y="109" width="35" height="2" rx="0.5" fill="#9ca3af"/>
  <rect x="15" y="114" width="85" height="2" rx="0.5" fill="#d1d5db"/>
  <rect x="15" y="118" width="80" height="2" rx="0.5" fill="#d1d5db"/>
  
  <rect x="10" y="126" width="50" height="3" rx="0.5" fill="#374151"/>
  <rect x="10" y="131" width="40" height="2" rx="0.5" fill="#9ca3af"/>
  <rect x="15" y="136" width="82" height="2" rx="0.5" fill="#d1d5db"/>
  <rect x="15" y="140" width="78" height="2" rx="0.5" fill="#d1d5db"/>
  
  <!-- FREE Badge -->
  <rect x="85" y="5" width="30" height="12" rx="6" fill="#22c55e"/>
  <text x="100" y="13" font-family="Arial" font-size="6" font-weight="bold" fill="white" text-anchor="middle">FREE</text>
</svg>
